<svg width="23" height="23" viewBox="0 0 23 23" fill="none" xmlns="http://www.w3.org/2000/svg">
<circle cx="11.5" cy="11.5" r="11.5" fill="url(#paint0_linear_11088_69005)"/>
<path opacity="0.2" d="M5.60956 18.633C5.34609 18.9526 4.87117 19.0001 4.57219 18.7134C3.27423 17.4689 2.33232 15.8936 1.85233 14.151C1.30578 12.1668 1.38479 10.0622 2.07858 8.12453C2.77237 6.18684 4.04715 4.51041 5.72896 3.32403C7.41077 2.13764 9.41768 1.49909 11.4758 1.49549C13.534 1.4919 15.5431 2.12345 17.229 3.30396C18.915 4.48447 20.1956 6.15643 20.8962 8.09168C21.5967 10.0269 21.6831 12.1312 21.1434 14.1174C20.6696 15.8616 19.7331 17.4401 18.4395 18.6892C18.1416 18.9769 17.6665 18.9311 17.4019 18.6124C17.1373 18.2937 17.1839 17.8231 17.478 17.5315C18.536 16.4825 19.303 15.1703 19.6959 13.7241C20.1546 12.0359 20.0812 10.2472 19.4857 8.60225C18.8903 6.95728 17.8017 5.53612 16.3687 4.53269C14.9356 3.52926 13.2279 2.99244 11.4785 2.99549C9.72902 2.99855 8.02315 3.54132 6.59361 4.54975C5.16407 5.55817 4.08051 6.98313 3.49079 8.63017C2.90106 10.2772 2.8339 12.0661 3.29847 13.7527C3.69645 15.1975 4.46802 16.507 5.52966 17.5523C5.82482 17.8429 5.87303 18.3134 5.60956 18.633Z" fill="white"/>
<path d="M5.60956 18.6331C5.34609 18.9527 4.87118 19.0002 4.5722 18.7135C3.61753 17.7981 2.85207 16.7006 2.32269 15.4831C1.69342 14.0359 1.4156 12.4603 1.51194 10.8851C1.60828 9.30995 2.07605 7.77996 2.877 6.42022C3.67794 5.06048 4.78933 3.9096 6.12029 3.06169C7.45125 2.21377 8.96399 1.69289 10.5348 1.54164C12.1057 1.39038 13.69 1.61305 15.1583 2.19143C16.6266 2.7698 17.9372 3.68747 18.9828 4.8694C19.8625 5.86372 20.5338 7.0213 20.9599 8.2734C21.0934 8.66552 20.8497 9.07588 20.4487 9.17959C20.0476 9.2833 19.6416 9.04079 19.503 8.65047C19.1394 7.62694 18.5822 6.6803 17.8594 5.86333C16.9706 4.85869 15.8566 4.07867 14.6085 3.58705C13.3605 3.09543 12.0138 2.90617 10.6786 3.03473C9.34339 3.1633 8.05756 3.60605 6.92624 4.32677C5.79492 5.0475 4.85024 6.02574 4.16944 7.18152C3.48863 8.3373 3.09103 9.6378 3.00914 10.9767C2.92725 12.3156 3.1634 13.6548 3.69828 14.885C4.13324 15.8853 4.7557 16.7904 5.52968 17.5524C5.82484 17.8431 5.87303 18.3135 5.60956 18.6331Z" fill="#FFD71B"/>
<path d="M14.335 8L11.635 16H10.245L12.515 9.27H8.66504V8H14.335Z" fill="#FFD71B"/>
<defs>
<linearGradient id="paint0_linear_11088_69005" x1="11.5" y1="0" x2="11.5" y2="23" gradientUnits="userSpaceOnUse">
<stop stop-color="#040404"/>
<stop offset="1" stop-color="#292929"/>
</linearGradient>
</defs>
</svg>
